<?xml version="1.0" encoding="UTF-8" standalone="no"?>
<svg
   xmlns:dc="http://purl.org/dc/elements/1.1/"
   xmlns:cc="http://creativecommons.org/ns#"
   xmlns:rdf="http://www.w3.org/1999/02/22-rdf-syntax-ns#"
   xmlns:svg="http://www.w3.org/2000/svg"
   xmlns="http://www.w3.org/2000/svg"
   xmlns:sodipodi="http://sodipodi.sourceforge.net/DTD/sodipodi-0.dtd"
   xmlns:inkscape="http://www.inkscape.org/namespaces/inkscape"
   version="1.1"
   id="svg2"
   xml:space="preserve"
   width="300"
   height="300"
   viewBox="0 0 300 300"
   sodipodi:docname="le-pigeon-nelson-logo.svg"
   inkscape:version="1.0.2 (e86c870879, 2021-01-15)"
   inkscape:export-filename="/home/jm/recherche/logiciels/le-pigeon-nelson/images/le-pigeon-nelson-logo.png"
   inkscape:export-xdpi="163.84"
   inkscape:export-ydpi="163.84"><metadata
     id="metadata8"><rdf:RDF><cc:Work
         rdf:about=""><dc:format>image/svg+xml</dc:format><dc:type
           rdf:resource="http://purl.org/dc/dcmitype/StillImage" /><dc:title /></cc:Work></rdf:RDF></metadata><defs
     id="defs6"><clipPath
       clipPathUnits="userSpaceOnUse"
       id="clipPath18"><path
         d="M 0,660 H 660 V 0 H 0 Z"
         id="path16"
         inkscape:connector-curvature="0" /></clipPath></defs><sodipodi:namedview
     pagecolor="#ffffff"
     bordercolor="#666666"
     borderopacity="1"
     objecttolerance="10"
     gridtolerance="10"
     guidetolerance="10"
     inkscape:pageopacity="0"
     inkscape:pageshadow="2"
     inkscape:window-width="1920"
     inkscape:window-height="1053"
     id="namedview4"
     showgrid="false"
     inkscape:zoom="1.0727273"
     inkscape:cx="-46.560876"
     inkscape:cy="292.13441"
     inkscape:window-x="1"
     inkscape:window-y="0"
     inkscape:window-maximized="1"
     inkscape:current-layer="g10"
     inkscape:document-rotation="0" /><g
     id="g10"
     inkscape:groupmode="layer"
     inkscape:label="pigeon-bird-publicdomainvectors.org"
     transform="matrix(1.3333333,0,0,-1.3333333,0,300)"><g
       id="g1368"
       transform="matrix(0.36649056,0,0,0.36649056,-1.7461766,-3.4059621)"><g
         id="g12"><g
           transform="translate(-11.865012,-83.055087)"
           id="g1275"><path
             inkscape:connector-curvature="0"
             id="path70"
             style="fill:#d6cbc7;fill-opacity:1;fill-rule:evenodd;stroke:none"
             d="m 422.461,99.934 c 111.164,0 201.829,2.477 201.829,5.518 0,3.04 -90.665,5.518 -201.829,5.518 -111.161,0 -201.827,-2.478 -201.827,-5.518 0,-3.041 90.666,-5.518 201.827,-5.518" /><path
             inkscape:connector-curvature="0"
             id="path72"
             style="fill:#4d4441;fill-opacity:1;fill-rule:evenodd;stroke:none"
             d="m 581.878,577.819 c 11.132,-0.037 17.416,-2.812 23.895,-7.796 l 1.842,0.799 c -0.562,17.122 -16.052,26.145 -28.927,25.617 z" /><path
             inkscape:connector-curvature="0"
             id="path74"
             style="fill:#b090b0;fill-opacity:1;fill-rule:evenodd;stroke:none"
             d="m 460.9,489.624 6.282,11.427 c 5.175,9.411 7.995,19.936 8.22,30.674 v 57.818 c 0,29.402 23.835,53.238 53.238,53.238 29.402,0 53.238,-23.836 53.238,-53.238 v -11.724 l -1.159,0.102 c -8.821,0.767 -16.747,-2.445 -22.543,-9.138 -5.799,-6.691 -7.849,-14.993 -5.832,-23.615 l 29.843,-127.68 z" /><path
             inkscape:connector-curvature="0"
             id="path76"
             style="fill:#9c7f9c;fill-opacity:1;fill-rule:evenodd;stroke:none"
             d="m 575.695,577.921 c -6.793,-0.611 -12.847,-3.744 -17.519,-9.138 -5.799,-6.691 -7.849,-14.993 -5.832,-23.615 l 29.842,-127.68 -50.459,30.012 15.213,40.514 -13.491,51.999 c -2.435,9.382 -0.566,18.483 5.364,26.149 5.931,7.666 14.272,11.759 23.965,11.759 z" /><path
             inkscape:connector-curvature="0"
             id="path78"
             style="fill:#857185;fill-opacity:1;fill-rule:evenodd;stroke:none"
             d="m 467.461,497.078 c 37.239,28.468 67.651,12.235 88.697,-19.253 C 601.479,410.018 596.542,318.854 541.35,256.133 464.146,168.399 318.599,205.934 229.351,251.987 L 105.196,142.604 C 85.154,124.947 54.547,126.628 36.557,146.372 l -11.439,12.555 z" /><path
             inkscape:connector-curvature="0"
             id="path80"
             style="fill:#d4bdd4;fill-opacity:1;fill-rule:evenodd;stroke:none"
             d="m 467.461,497.078 c 32.049,24.501 59.04,15.891 79.357,-7.057 l 3.256,-53.434 C 557.129,222.627 350.321,230.737 206.761,297.785 Z" /><path
             inkscape:connector-curvature="0"
             id="path82"
             style="fill:#e3cce3;fill-opacity:1;fill-rule:evenodd;stroke:none"
             d="m 438.971,460.805 c 21.785,16.654 40.132,10.801 53.941,-4.798 l 2.213,-36.319 C 499.918,274.253 359.348,279.765 261.767,325.341 Z" /><path
             inkscape:connector-curvature="0"
             id="path84"
             style="fill:#615361;fill-opacity:1;fill-rule:evenodd;stroke:none"
             d="M 403.012,256.794 298.403,367.84 277.479,351.843 367.671,256.1 c 12.026,-0.497 23.849,-0.29 35.341,0.694 m 52.228,11.129 c -9.118,-3.343 -18.678,-5.947 -28.585,-7.867 l -112.722,119.656 20.926,15.997 z" /><path
             inkscape:connector-curvature="0"
             id="path86"
             style="fill:#756775;fill-opacity:1;fill-rule:evenodd;stroke:none"
             d="m 364.804,297.354 -58.462,62.062 -20.928,-15.998 37.088,-39.368 c 14.137,-3.386 28.382,-5.71 42.302,-6.696 m 26.842,-0.137 -69.776,74.069 20.926,15.997 79.92,-84.835 c -9.799,-2.826 -20.232,-4.525 -31.07,-5.231" /><path
             inkscape:connector-curvature="0"
             id="path88"
             style="fill:#857185;fill-opacity:1;fill-rule:evenodd;stroke:none"
             d="m 345.959,216.979 37.056,-48.17 h 14.821 l 44.466,57.168 z" /><path
             inkscape:connector-curvature="0"
             id="path90"
             style="fill:#ff6666;fill-opacity:1;fill-rule:evenodd;stroke:none"
             d="m 383.015,168.809 h 14.821 l 29.129,-62.993 h -14.822 z" /><path
             inkscape:connector-curvature="0"
             id="path92"
             style="fill:#ff6666;fill-opacity:1;fill-rule:evenodd;stroke:none"
             d="m 380.102,105.816 h 94.224 v 6.088 c 0,3.347 -2.74,6.087 -6.087,6.087 h -82.051 c -3.348,0 -6.086,-2.74 -6.086,-6.087 z" /><path
             inkscape:connector-curvature="0"
             id="path94"
             style="fill:#332d2a;fill-opacity:1;fill-rule:evenodd;stroke:none"
             d="m 372.903,114.154 h 10.307 c 2.585,0 4.698,-2.113 4.698,-4.699 0,-2.585 -2.113,-4.696 -4.698,-4.696 h -19.495 v 0.209 c 0,5.058 4.127,9.186 9.188,9.186" /><path
             inkscape:connector-curvature="0"
             id="path96"
             style="fill:#332d2a;fill-opacity:1;fill-rule:evenodd;stroke:none"
             d="m 478.505,114.154 h -10.309 c -2.583,0 -4.696,-2.113 -4.696,-4.699 0,-2.585 2.113,-4.696 4.696,-4.696 h 19.494 v 0.209 c 0,5.058 -4.125,9.186 -9.185,9.186" /><path
             inkscape:connector-curvature="0"
             id="path98"
             style="fill:#ffcc00;fill-opacity:1;fill-rule:evenodd;stroke:none"
             d="m 537.308,601.021 c 5.426,0 9.854,4.428 9.854,9.855 0,5.429 -4.428,9.856 -9.854,9.856 -5.429,0 -9.858,-4.427 -9.858,-9.856 0,-5.427 4.429,-9.855 9.858,-9.855" /><path
             inkscape:connector-curvature="0"
             id="path100"
             style="fill:#332d2a;fill-opacity:1;fill-rule:evenodd;stroke:none"
             d="m 537.308,606.147 c 2.604,0 4.728,2.124 4.728,4.729 0,2.606 -2.124,4.731 -4.728,4.731 -2.606,0 -4.732,-2.125 -4.732,-4.731 0,-2.605 2.126,-4.729 4.732,-4.729" /><path
             inkscape:connector-curvature="0"
             id="path102"
             style="fill:#ffffff;fill-opacity:1;fill-rule:evenodd;stroke:none"
             d="m 540.067,611.14 c 1.446,0 2.626,1.18 2.626,2.628 0,1.447 -1.18,2.628 -2.626,2.628 -1.447,0 -2.629,-1.181 -2.629,-2.628 0,-1.448 1.182,-2.628 2.629,-2.628" /></g></g><g
         transform="matrix(-1,0,0,1,1139.0467,68.494903)"
         id="g1214"><path
           d="m 606.0379,545.43299 c 43.9712,1.765 81.0452,-32.45 82.8092,-76.41999 1.765,-43.97099 -32.449,-81.04499 -76.42,-82.80999 -43.9704,-1.76401 -81.0446,32.45 -82.8091,76.421 -1.7644,43.96898 32.4492,81.04498 76.4199,82.80898"
           style="fill:#100f0d;fill-opacity:1;fill-rule:evenodd;stroke:none;stroke-width:0.09999999"
           id="path388"
           inkscape:connector-curvature="0" /><path
           d="m 535.8809,496.97099 2.7316,-68.08298 c -0.5957,1.137 -1.166,2.293 -1.7074,3.462 l -2.4492,61.03298 c 0.4465,1.21 0.9215,2.406 1.425,3.588"
           style="fill:#b1b1b0;fill-opacity:1;fill-rule:evenodd;stroke:none;stroke-width:0.09999999"
           id="path390"
           inkscape:connector-curvature="0" /><path
           d="m 534.4567,493.38399 2.4484,-61.03398 c -0.6121,1.323 -1.1883,2.666 -1.7301,4.028 l -2.1203,52.85298 c 0.4305,1.399 0.8965,2.785 1.402,4.153"
           style="fill:#464648;fill-opacity:1;fill-rule:evenodd;stroke:none;stroke-width:0.09999999"
           id="path392"
           inkscape:connector-curvature="0" /><path
           d="m 544.5106,512.29499 3.932,-97.98998 c -0.5613,0.662 -1.1097,1.335 -1.6496,2.014 l -3.7648,93.83498 c 0.4836,0.721 0.9761,1.436 1.4824,2.141"
           style="fill:#b1b1b0;fill-opacity:1;fill-rule:evenodd;stroke:none;stroke-width:0.09999999"
           id="path394"
           inkscape:connector-curvature="0" /><path
           d="m 543.0282,510.15399 3.7648,-93.83498 c -0.5621,0.71 -1.1164,1.426 -1.6543,2.154 l -3.5879,89.40198 c 0.4785,0.769 0.9731,1.528 1.4774,2.279"
           style="fill:#464648;fill-opacity:1;fill-rule:evenodd;stroke:none;stroke-width:0.09999999"
           id="path396"
           inkscape:connector-curvature="0" /><path
           d="m 553.3407,522.60799 4.7304,-117.87498 c -0.548,0.459 -1.089,0.928 -1.6246,1.402 l -4.6121,114.94398 c 0.4961,0.516 0.9965,1.026 1.5063,1.529"
           style="fill:#b1b1b0;fill-opacity:1;fill-rule:evenodd;stroke:none;stroke-width:0.09999999"
           id="path398"
           inkscape:connector-curvature="0" /><path
           d="m 551.8344,521.07999 4.6121,-114.94498 c -0.5496,0.487 -1.091,0.983 -1.6281,1.484 l -4.4883,111.85098 c 0.4945,0.543 0.9949,1.08 1.5043,1.61"
           style="fill:#464648;fill-opacity:1;fill-rule:evenodd;stroke:none;stroke-width:0.09999999"
           id="path400"
           inkscape:connector-curvature="0" /><path
           d="m 562.2813,530.20099 5.3098,-132.32198 c -0.5411,0.333 -1.077,0.671 -1.6098,1.016 l -5.2231,130.16598 c 0.5032,0.386 1.011,0.766 1.5231,1.14"
           style="fill:#b1b1b0;fill-opacity:1;fill-rule:evenodd;stroke:none;stroke-width:0.09999999"
           id="path402"
           inkscape:connector-curvature="0" /><path
           d="m 560.7582,529.06099 5.2231,-130.16598 c -0.5414,0.35 -1.0789,0.708 -1.6113,1.071 l -5.1317,127.89798 c 0.502,0.405 1.0078,0.804 1.5199,1.197"
           style="fill:#464648;fill-opacity:1;fill-rule:evenodd;stroke:none;stroke-width:0.09999999"
           id="path404"
           inkscape:connector-curvature="0" /><path
           d="m 571.2969,535.90099 5.7375,-142.98098 c -0.5359,0.237 -1.0683,0.48 -1.5973,0.728 l -5.675,141.39998 c 0.5083,0.29 1.0208,0.574 1.5348,0.853"
           style="fill:#b1b1b0;fill-opacity:1;fill-rule:evenodd;stroke:none;stroke-width:0.09999999"
           id="path406"
           inkscape:connector-curvature="0" /><path
           d="m 569.7621,535.04799 5.675,-141.39998 c -0.5375,0.251 -1.0707,0.508 -1.6,0.771 l -5.6074,139.73198 c 0.5071,0.305 1.0184,0.603 1.5324,0.897"
           style="fill:#464648;fill-opacity:1;fill-rule:evenodd;stroke:none;stroke-width:0.09999999"
           id="path408"
           inkscape:connector-curvature="0" /><path
           d="m 580.3731,540.10699 6.0449,-150.65098 c -0.5312,0.159 -1.0617,0.32 -1.5879,0.489 l -6.0012,149.54598 c 0.511,0.212 1.027,0.415 1.5442,0.616"
           style="fill:#b1b1b0;fill-opacity:1;fill-rule:evenodd;stroke:none;stroke-width:0.09999999"
           id="path410"
           inkscape:connector-curvature="0" /><path
           d="m 578.8289,539.49099 6.0012,-149.54598 c -0.534,0.171 -1.0625,0.351 -1.5902,0.533 l -5.9528,148.35598 c 0.5106,0.223 1.0243,0.444 1.5418,0.657"
           style="fill:#464648;fill-opacity:1;fill-rule:evenodd;stroke:none;stroke-width:0.09999999"
           id="path412"
           inkscape:connector-curvature="0" /><path
           d="m 589.5,543.02699 6.2496,-155.74998 c -0.5285,0.089 -1.0558,0.183 -1.5796,0.283 l -6.2223,155.05798 c 0.5152,0.142 1.0328,0.277 1.5523,0.409"
           style="fill:#b1b1b0;fill-opacity:1;fill-rule:evenodd;stroke:none;stroke-width:0.09999999"
           id="path414"
           inkscape:connector-curvature="0" /><path
           d="M 587.9477,542.61799 594.17,387.56001 c -0.5289,0.101 -1.0563,0.207 -1.5817,0.319 l -6.1914,154.29398 c 0.5152,0.154 1.032,0.301 1.5508,0.445"
           style="fill:#464648;fill-opacity:1;fill-rule:evenodd;stroke:none;stroke-width:0.09999999"
           id="path416"
           inkscape:connector-curvature="0" /><path
           d="m 598.6727,544.79499 6.3625,-158.54398 c -0.5254,0.026 -1.0492,0.059 -1.5731,0.096 l -6.3488,158.22498 c 0.5184,0.078 1.0387,0.153 1.5594,0.223"
           style="fill:#b1b1b0;fill-opacity:1;fill-rule:evenodd;stroke:none;stroke-width:0.09999999"
           id="path418"
           inkscape:connector-curvature="0" /><path
           d="m 597.1137,544.57199 6.3484,-158.22498 c -0.525,0.038 -1.0496,0.078 -1.573,0.125 l -6.334,157.84798 c 0.5172,0.09 1.0371,0.172 1.5586,0.252"
           style="fill:#464648;fill-opacity:1;fill-rule:evenodd;stroke:none;stroke-width:0.09999999"
           id="path420"
           inkscape:connector-curvature="0" /><path
           d="m 607.8903,545.48399 6.3868,-159.18298 c -0.52,-0.033 -1.041,-0.06 -1.565,-0.083 l -6.3882,159.22298 c 0.523,0.019 1.0453,0.034 1.5664,0.043"
           style="fill:#b1b1b0;fill-opacity:1;fill-rule:evenodd;stroke:none;stroke-width:0.09999999"
           id="path422"
           inkscape:connector-curvature="0" /><path
           d="m 606.3239,545.44099 6.3882,-159.22298 c -0.094,-0.004 -0.189,-0.011 -0.285,-0.015 -0.428,-0.017 -0.854,-0.025 -1.281,-0.035 l -6.3882,159.19798 c 0.4261,0.024 0.8519,0.05 1.28,0.067 0.0953,0 0.1907,0 0.286,0.01"
           style="fill:#464648;fill-opacity:1;fill-rule:evenodd;stroke:none;stroke-width:0.09999999"
           id="path424"
           inkscape:connector-curvature="0" /><path
           d="m 617.1501,545.10599 6.328,-157.68698 c -0.518,-0.093 -1.038,-0.183 -1.559,-0.267 l -6.343,158.09498 c 0.525,-0.042 1.051,-0.088 1.574,-0.141"
           style="fill:#b1b1b0;fill-opacity:1;fill-rule:evenodd;stroke:none;stroke-width:0.09999999"
           id="path426"
           inkscape:connector-curvature="0" /><path
           d="m 615.5761,545.24699 6.343,-158.09398 c -0.518,-0.083 -1.037,-0.163 -1.558,-0.237 l -6.359,158.44198 c 0.526,-0.031 1.051,-0.07 1.574,-0.111"
           style="fill:#464648;fill-opacity:1;fill-rule:evenodd;stroke:none;stroke-width:0.09999999"
           id="path428"
           inkscape:connector-curvature="0" /><path
           d="m 626.4541,543.62999 6.179,-153.99398 c -0.514,-0.157 -1.031,-0.308 -1.55,-0.456 l -6.211,154.77998 c 0.529,-0.105 1.057,-0.215 1.582,-0.33"
           style="fill:#b1b1b0;fill-opacity:1;fill-rule:evenodd;stroke:none;stroke-width:0.09999999"
           id="path430"
           inkscape:connector-curvature="0" /><path
           d="m 624.8721,543.95999 6.211,-154.77998 c -0.515,-0.146 -1.032,-0.287 -1.552,-0.423 l -6.24,155.50098 c 0.529,-0.094 1.056,-0.193 1.581,-0.298"
           style="fill:#464648;fill-opacity:1;fill-rule:evenodd;stroke:none;stroke-width:0.09999999"
           id="path432"
           inkscape:connector-curvature="0" /><path
           d="m 635.8061,540.95399 5.934,-147.90098 c -0.51,-0.229 -1.025,-0.451 -1.541,-0.668 l -5.984,149.11198 c 0.532,-0.176 1.063,-0.356 1.591,-0.543"
           style="fill:#b1b1b0;fill-opacity:1;fill-rule:evenodd;stroke:none;stroke-width:0.09999999"
           id="path434"
           inkscape:connector-curvature="0" /><path
           d="m 634.2151,541.49699 5.984,-149.11198 c -0.512,-0.216 -1.026,-0.426 -1.544,-0.631 l -6.028,150.24798 c 0.531,-0.164 1.06,-0.331 1.588,-0.505"
           style="fill:#464648;fill-opacity:1;fill-rule:evenodd;stroke:none;stroke-width:0.09999999"
           id="path436"
           inkscape:connector-curvature="0" /><path
           d="m 645.2121,536.92099 5.581,-139.09398 c -0.506,-0.311 -1.017,-0.616 -1.532,-0.915 l -5.65,140.79898 c 0.538,-0.257 1.07,-0.52 1.601,-0.79"
           style="fill:#b1b1b0;fill-opacity:1;fill-rule:evenodd;stroke:none;stroke-width:0.09999999"
           id="path438"
           inkscape:connector-curvature="0" /><path
           d="m 643.6121,537.71099 5.649,-140.79898 c -0.507,-0.295 -1.018,-0.586 -1.533,-0.87 l -5.715,142.41298 c 0.536,-0.243 1.069,-0.491 1.599,-0.744"
           style="fill:#464648;fill-opacity:1;fill-rule:evenodd;stroke:none;stroke-width:0.09999999"
           id="path440"
           inkscape:connector-curvature="0" /><path
           d="m 654.6831,531.26299 5.098,-127.03798 c -0.501,-0.412 -1.008,-0.819 -1.52,-1.219 l -5.19,129.34998 c 0.543,-0.357 1.079,-0.723 1.612,-1.093"
           style="fill:#b1b1b0;fill-opacity:1;fill-rule:evenodd;stroke:none;stroke-width:0.09999999"
           id="path442"
           inkscape:connector-curvature="0" /><path
           d="m 653.0711,532.35599 5.191,-129.34898 c -0.503,-0.394 -1.011,-0.78 -1.522,-1.161 l -5.279,131.54498 c 0.541,-0.339 1.077,-0.684 1.61,-1.035"
           style="fill:#464648;fill-opacity:1;fill-rule:evenodd;stroke:none;stroke-width:0.09999999"
           id="path444"
           inkscape:connector-curvature="0" /><path
           d="m 664.2411,523.45499 4.441,-110.68098 c -0.492,-0.552 -0.995,-1.098 -1.503,-1.637 l -4.567,113.82898 c 0.549,-0.496 1.094,-0.999 1.629,-1.511"
           style="fill:#b1b1b0;fill-opacity:1;fill-rule:evenodd;stroke:none;stroke-width:0.09999999"
           id="path446"
           inkscape:connector-curvature="0" /><path
           d="m 662.6121,524.96599 4.568,-113.82898 c -0.496,-0.525 -0.997,-1.042 -1.506,-1.554 l -4.688,116.81198 c 0.549,-0.469 1.09,-0.946 1.626,-1.429"
           style="fill:#464648;fill-opacity:1;fill-rule:evenodd;stroke:none;stroke-width:0.09999999"
           id="path448"
           inkscape:connector-curvature="0" /><path
           d="m 673.9321,512.32899 3.519,-87.68698 c -0.48,-0.793 -0.968,-1.579 -1.474,-2.355 l -3.703,92.26898 c 0.567,-0.731 1.117,-1.476 1.658,-2.227"
           style="fill:#b1b1b0;fill-opacity:1;fill-rule:evenodd;stroke:none;stroke-width:0.09999999"
           id="path450"
           inkscape:connector-curvature="0" /><path
           d="m 672.2751,514.55599 3.702,-92.26798 c -0.481,-0.735 -0.978,-1.461 -1.482,-2.179 l -3.872,96.50098 c 0.561,-0.677 1.114,-1.359 1.652,-2.054"
           style="fill:#464648;fill-opacity:1;fill-rule:evenodd;stroke:none;stroke-width:0.09999999"
           id="path452"
           inkscape:connector-curvature="0" /><path
           d="m 683.9291,493.59899 1.984,-49.48798 c -0.421,-1.494 -0.883,-2.974 -1.39,-4.433 l -2.337,58.22898 c 0.623,-1.413 1.202,-2.851 1.743,-4.308"
           style="fill:#b1b1b0;fill-opacity:1;fill-rule:evenodd;stroke:none;stroke-width:0.09999999"
           id="path454"
           inkscape:connector-curvature="0" /><path
           d="m 682.1871,497.90599 2.336,-58.22798 c -0.441,-1.27 -0.913,-2.527 -1.417,-3.768 l -2.634,65.63898 c 0.602,-1.197 1.172,-2.411 1.715,-3.643"
           style="fill:#464648;fill-opacity:1;fill-rule:evenodd;stroke:none;stroke-width:0.09999999"
           id="path456"
           inkscape:connector-curvature="0" /><path
           d="m 535.4282,435.78001 50.0742,-46.21 c -1.2262,0.383 -2.4453,0.797 -3.6563,1.241 l -44.8882,41.425 c -0.5399,1.171 -1.0497,2.353 -1.5297,3.544"
           style="fill:#b1b1b0;fill-opacity:1;fill-rule:evenodd;stroke:none;stroke-width:0.09999999"
           id="path458"
           inkscape:connector-curvature="0" /><path
           d="m 536.9579,432.23701 44.889,-41.426 c -1.3687,0.502 -2.7254,1.045 -4.0711,1.624 l -38.8726,35.874 c -0.6856,1.294 -1.3348,2.604 -1.9453,3.928"
           style="fill:#464648;fill-opacity:1;fill-rule:evenodd;stroke:none;stroke-width:0.09999999"
           id="path460"
           inkscape:connector-curvature="0" /><path
           d="m 530.6954,452.71901 72.0687,-66.51 c -0.8648,0.071 -1.7285,0.16 -2.5914,0.259 l -69.0121,63.688 c -0.168,0.852 -0.3258,1.705 -0.4652,2.563"
           style="fill:#b1b1b0;fill-opacity:1;fill-rule:evenodd;stroke:none;stroke-width:0.09999999"
           id="path462"
           inkscape:connector-curvature="0" /><path
           d="m 531.1602,450.15601 69.0125,-63.688 c -0.8981,0.103 -1.7965,0.218 -2.6922,0.352 L 531.727,447.5 c -0.2051,0.882 -0.3914,1.76801 -0.5668,2.65601"
           style="fill:#464648;fill-opacity:1;fill-rule:evenodd;stroke:none;stroke-width:0.09999999"
           id="path464"
           inkscape:connector-curvature="0" /><path
           d="m 529.6473,466.25501 86.6948,-80.006 c -0.714,-0.062 -1.428,-0.113 -2.141,-0.157 L 529.6618,464.108 c -0.0129,0.71601 -0.02,1.431 -0.0145,2.14701"
           style="fill:#b1b1b0;fill-opacity:1;fill-rule:evenodd;stroke:none;stroke-width:0.09999999"
           id="path466"
           inkscape:connector-curvature="0" /><path
           d="m 529.6618,464.108 84.5393,-78.01599 c -0.732,-0.045 -1.467,-0.077 -2.201,-0.102 l -82.2637,75.917 c -0.0336,0.733 -0.0614,1.468 -0.0746,2.20099"
           style="fill:#464648;fill-opacity:1;fill-rule:evenodd;stroke:none;stroke-width:0.09999999"
           id="path468"
           inkscape:connector-curvature="0" /><path
           d="m 530.5993,477.94599 97.3198,-89.81098 c -0.618,-0.147 -1.236,-0.288 -1.857,-0.42 l -95.7335,88.348 c 0.0832,0.628 0.1722,1.256 0.2707,1.88298"
           style="fill:#b1b1b0;fill-opacity:1;fill-rule:evenodd;stroke:none;stroke-width:0.09999999"
           id="path470"
           inkscape:connector-curvature="0" /><path
           d="m 530.3286,476.06301 95.7345,-88.348 c -0.631,-0.136 -1.263,-0.263 -1.897,-0.382 l -94.0661,86.808 c 0.0684,0.642 0.1446,1.281 0.2286,1.922"
           style="fill:#464648;fill-opacity:1;fill-rule:evenodd;stroke:none;stroke-width:0.09999999"
           id="path472"
           inkscape:connector-curvature="0" /><path
           d="m 532.9434,488.35099 105.1597,-97.04598 c -0.546,-0.21 -1.095,-0.416 -1.644,-0.614 l -103.9973,95.97198 c 0.1543,0.565 0.3152,1.127 0.4816,1.688"
           style="fill:#b1b1b0;fill-opacity:1;fill-rule:evenodd;stroke:none;stroke-width:0.09999999"
           id="path474"
           inkscape:connector-curvature="0" /><path
           d="m 532.4618,486.66399 103.9973,-95.97298 c -0.558,-0.202 -1.116,-0.397 -1.677,-0.587 l -102.7707,94.84198 c 0.1437,0.574 0.2937,1.146 0.4504,1.718"
           style="fill:#464648;fill-opacity:1;fill-rule:evenodd;stroke:none;stroke-width:0.09999999"
           id="path476"
           inkscape:connector-curvature="0" /><path
           d="M 536.3868,497.74199 647.1881,395.49101 c -0.488,-0.264 -0.977,-0.524 -1.469,-0.778 L 535.7309,496.21499 c 0.2125,0.512 0.4324,1.02 0.6559,1.527"
           style="fill:#b1b1b0;fill-opacity:1;fill-rule:evenodd;stroke:none;stroke-width:0.09999999"
           id="path478"
           inkscape:connector-curvature="0" /><path
           d="M 535.7309,496.21599 645.7191,394.71301 c -0.498,-0.254 -0.999,-0.502 -1.5,-0.746 L 535.1055,494.65999 c 0.2035,0.52 0.4106,1.04 0.6254,1.556"
           style="fill:#464648;fill-opacity:1;fill-rule:evenodd;stroke:none;stroke-width:0.09999999"
           id="path480"
           inkscape:connector-curvature="0" /><path
           d="M 540.7762,506.26099 655.3281,400.54901 c -0.438,-0.31 -0.876,-0.618 -1.318,-0.917 L 539.9672,504.87399 c 0.2641,0.465 0.5356,0.926 0.809,1.387"
           style="fill:#b1b1b0;fill-opacity:1;fill-rule:evenodd;stroke:none;stroke-width:0.09999999"
           id="path482"
           inkscape:connector-curvature="0" /><path
           d="M 539.968,504.87499 654.0101,399.63201 c -0.446,-0.303 -0.893,-0.601 -1.343,-0.893 L 539.1864,503.46399 c 0.2547,0.472 0.5164,0.942 0.7816,1.411"
           style="fill:#464648;fill-opacity:1;fill-rule:evenodd;stroke:none;stroke-width:0.09999999"
           id="path484"
           inkscape:connector-curvature="0" /><path
           d="M 546.0137,513.99699 662.6191,406.38801 c -0.391,-0.352 -0.784,-0.699 -1.18,-1.043 L 545.0676,512.73699 c 0.3102,0.423 0.6258,0.843 0.9461,1.26"
           style="fill:#b1b1b0;fill-opacity:1;fill-rule:evenodd;stroke:none;stroke-width:0.09999999"
           id="path486"
           inkscape:connector-curvature="0" /><path
           d="M 545.0676,512.73699 661.4391,405.34501 c -0.399,-0.345 -0.798,-0.687 -1.202,-1.024 L 544.1434,511.45799 c 0.3027,0.428 0.6129,0.855 0.9242,1.279"
           style="fill:#464648;fill-opacity:1;fill-rule:evenodd;stroke:none;stroke-width:0.09999999"
           id="path488"
           inkscape:connector-curvature="0" /><path
           d="M 552.0418,521.00299 669.1191,412.96001 c -0.345,-0.391 -0.695,-0.779 -1.049,-1.166 L 550.9649,519.86399 c 0.3566,0.384 0.7152,0.763 1.0769,1.139"
           style="fill:#b1b1b0;fill-opacity:1;fill-rule:evenodd;stroke:none;stroke-width:0.09999999"
           id="path490"
           inkscape:connector-curvature="0" /><path
           d="m 550.9657,519.86399 117.1054,-108.06998 -0.191,-0.212 c -0.291,-0.315 -0.588,-0.622 -0.882,-0.931 l -117.086,108.05298 c 0.2844,0.319 0.5665,0.638 0.8575,0.953 l 0.1961,0.207"
           style="fill:#464648;fill-opacity:1;fill-rule:evenodd;stroke:none;stroke-width:0.09999999"
           id="path492"
           inkscape:connector-curvature="0" /><path
           d="M 558.8575,527.28399 674.8331,420.25601 c -0.299,-0.432 -0.603,-0.863 -0.913,-1.29 L 557.6446,526.26999 c 0.4015,0.342 0.8058,0.68 1.2129,1.014"
           style="fill:#b1b1b0;fill-opacity:1;fill-rule:evenodd;stroke:none;stroke-width:0.09999999"
           id="path494"
           inkscape:connector-curvature="0" /><path
           d="M 557.645,526.26999 673.9201,418.96601 c -0.308,-0.425 -0.618,-0.849 -0.935,-1.27 L 556.4539,525.23499 c 0.3942,0.351 0.7922,0.694 1.1911,1.035"
           style="fill:#464648;fill-opacity:1;fill-rule:evenodd;stroke:none;stroke-width:0.09999999"
           id="path496"
           inkscape:connector-curvature="0" /><path
           d="M 566.4809,532.81699 679.7391,428.29701 c -0.252,-0.474 -0.511,-0.946 -0.774,-1.418 L 565.1286,531.93299 c 0.4492,0.299 0.8984,0.596 1.3523,0.884"
           style="fill:#b1b1b0;fill-opacity:1;fill-rule:evenodd;stroke:none;stroke-width:0.09999999"
           id="path498"
           inkscape:connector-curvature="0" /><path
           d="M 565.1286,531.93299 678.9661,426.87901 c -0.262,-0.468 -0.528,-0.933 -0.798,-1.396 L 563.7996,531.02599 c 0.4411,0.308 0.884,0.61 1.329,0.907"
           style="fill:#464648;fill-opacity:1;fill-rule:evenodd;stroke:none;stroke-width:0.09999999"
           id="path500"
           inkscape:connector-curvature="0" /><path
           d="M 574.9848,537.53899 683.7641,437.15301 c -0.2,-0.523 -0.407,-1.043 -0.618,-1.563 L 573.4766,536.79799 c 0.5004,0.252 1.0027,0.5 1.5082,0.741"
           style="fill:#b1b1b0;fill-opacity:1;fill-rule:evenodd;stroke:none;stroke-width:0.09999999"
           id="path502"
           inkscape:connector-curvature="0" /><path
           d="M 573.4766,536.79799 683.1461,435.59101 c -0.209,-0.515 -0.425,-1.027 -0.646,-1.538 l -110.504,101.97898 c 0.491,0.261 0.9852,0.516 1.4805,0.766"
           style="fill:#464648;fill-opacity:1;fill-rule:evenodd;stroke:none;stroke-width:0.09999999"
           id="path504"
           inkscape:connector-curvature="0" /><path
           d="M 584.4875,541.33799 686.7901,446.93 c -0.139,-0.57799 -0.285,-1.15399 -0.437,-1.72999 l -103.5546,95.56498 c 0.5613,0.197 1.1242,0.388 1.689,0.573"
           style="fill:#b1b1b0;fill-opacity:1;fill-rule:evenodd;stroke:none;stroke-width:0.09999999"
           id="path506"
           inkscape:connector-curvature="0" /><path
           d="m 582.7993,540.76499 103.5538,-95.56498 c -0.15,-0.56801 -0.306,-1.134 -0.469,-1.7 l -104.7427,96.66098 c 0.5508,0.208 1.1032,0.408 1.6579,0.604"
           style="fill:#464648;fill-opacity:1;fill-rule:evenodd;stroke:none;stroke-width:0.09999999"
           id="path508"
           inkscape:connector-curvature="0" /><path
           d="m 595.1864,544.03499 93.4337,-86.22498 c -0.063,-0.646 -0.134,-1.291 -0.213,-1.936 l -95.1336,87.79398 c 0.6355,0.13 1.2738,0.252 1.9129,0.367"
           style="fill:#b1b1b0;fill-opacity:1;fill-rule:evenodd;stroke:none;stroke-width:0.09999999"
           id="path510"
           inkscape:connector-curvature="0" /><path
           d="m 593.2739,543.66799 95.1332,-87.79398 c -0.077,-0.633 -0.163,-1.265 -0.255,-1.89701 l -96.7493,89.28399 c 0.6226,0.143 1.2461,0.279 1.8711,0.407"
           style="fill:#464648;fill-opacity:1;fill-rule:evenodd;stroke:none;stroke-width:0.09999999"
           id="path512"
           inkscape:connector-curvature="0" /><path
           d="M 607.4653,545.27199 688.8701,470.15 c 0.042,-0.741 0.073,-1.47999 0.094,-2.22099 l -83.7191,77.25998 c 0.7398,0.038 1.4804,0.066 2.2203,0.083"
           style="fill:#b1b1b0;fill-opacity:1;fill-rule:evenodd;stroke:none;stroke-width:0.09999999"
           id="path514"
           inkscape:connector-curvature="0" /><path
           d="m 605.2461,545.18899 83.718,-77.25998 c 0.021,-0.721 0.033,-1.44201 0.034,-2.163 l -85.91207,79.28298 c 0.7191,0.056 1.4383,0.103 2.1601,0.14"
           style="fill:#464648;fill-opacity:1;fill-rule:evenodd;stroke:none;stroke-width:0.09999999"
           id="path516"
           inkscape:connector-curvature="0" /><path
           d="m 622.1861,544.25699 64.493,-59.516 c 0.221,-0.899 0.431,-1.801 0.621,-2.707 l -67.862,62.626 c 0.918,-0.116 1.833,-0.255 2.748,-0.403"
           style="fill:#b1b1b0;fill-opacity:1;fill-rule:evenodd;stroke:none;stroke-width:0.09999999"
           id="path518"
           inkscape:connector-curvature="0" /><path
           d="m 619.4381,544.65999 67.862,-62.626 c 0.181,-0.86 0.341,-1.723 0.493,-2.587 l -70.974,65.497 c 0.874,-0.082 1.747,-0.173 2.619,-0.284"
           style="fill:#464648;fill-opacity:1;fill-rule:evenodd;stroke:none;stroke-width:0.09999999"
           id="path520"
           inkscape:connector-curvature="0" /><path
           d="m 642.4981,538.08199 36.397,-33.589 c 0.758,-1.356 1.479,-2.728 2.152,-4.118 l -42.826,39.522 c 1.439,-0.56 2.865,-1.169 4.277,-1.815"
           style="fill:#b1b1b0;fill-opacity:1;fill-rule:evenodd;stroke:none;stroke-width:0.09999999"
           id="path522"
           inkscape:connector-curvature="0" /><path
           d="m 638.2211,539.89699 42.826,-39.522 c 0.586,-1.21 1.14,-2.433 1.662,-3.667 l -48.277,44.552 c 1.272,-0.422 2.535,-0.877 3.789,-1.363"
           style="fill:#464648;fill-opacity:1;fill-rule:evenodd;stroke:none;stroke-width:0.09999999"
           id="path524"
           inkscape:connector-curvature="0" /><path
           d="m 530.3789,441.44001 149.2912,67.39998 c 1.114,0.503 2.435,0 2.938,-1.109 l 6.664,-14.764 c 0.503,-1.112 0.004,-2.434 -1.109,-2.936 L 538.8715,422.62901 c -1.1133,-0.502 -2.4351,-0.003 -2.9371,1.111 l -6.666,14.763 c -0.502,1.112 -0.002,2.434 1.1105,2.937"
           style="fill:#e8e8e7;fill-opacity:1;fill-rule:evenodd;stroke:none;stroke-width:0.09999999"
           id="path526"
           inkscape:connector-curvature="0" /><path
           sodipodi:nodetypes="cccccc"
           d="m 589.4985,388.65001 c 30.2236,13.644 60.0176,26.003 90.2406,39.647 -2.08084,-11.93719 -4.05827,-19.2453 -4.0677,-34.25749 -8.176,-6.892 -15.47706,-13.78201 -23.65206,-20.674 -11.548,-2.013 -47.65473,-1.53526 -59.20373,-3.54926 2.32522,13.22872 6.43639,16.45175 -3.31711,18.83375"
           style="fill:#5e5f62;fill-opacity:1;fill-rule:evenodd;stroke:none;stroke-width:0.09999999"
           id="path528"
           inkscape:connector-curvature="0" /></g></g></g></svg>
